<?xml version="1.0" standalone="no"?>
<!DOCTYPE svg PUBLIC "-//W3C//DTD SVG 20010904//EN"
 "http://www.w3.org/TR/2001/REC-SVG-20010904/DTD/svg10.dtd">
<svg version="1.0" xmlns="http://www.w3.org/2000/svg"
 width="1200.000000pt" height="1200.000000pt" viewBox="0 0 1200.000000 1200.000000"
 preserveAspectRatio="xMidYMid meet">
<metadata>
Created by potrace 1.15, written by Peter Selinger 2001-2017
</metadata>
<g transform="translate(0.000000,1200.000000) scale(0.100000,-0.100000)"
fill="#000000" stroke="none">
<path d="M4845 8569 c-632 -367 -1153 -670 -1156 -671 -3 -2 -9 -178 -13 -393
l-7 -390 213 -122 c117 -67 221 -128 231 -135 16 -12 -7 -27 -206 -143 l-224
-130 -7 -388 c-4 -214 -6 -390 -4 -392 2 -1 527 -304 1167 -674 l1164 -671
1156 671 c636 370 1157 672 1157 673 1 0 4 177 8 391 l6 390 -225 129 c-124
71 -227 131 -229 135 -3 3 96 64 218 136 l223 129 7 389 c4 214 6 390 4 391
-8 6 -2296 1324 -2313 1334 -17 8 -189 -88 -1170 -659z m1978 -594 c608 -351
812 -473 804 -481 -11 -10 -355 -212 -414 -243 -19 -10 -89 28 -619 334 l-597
345 -586 -341 c-322 -187 -589 -341 -592 -342 -13 -4 -458 258 -451 265 24 24
1610 938 1624 936 9 -2 383 -214 831 -473z m-538 -1000 c121 -70 221 -128 223
-130 2 -2 -88 -56 -200 -121 -112 -65 -224 -130 -249 -145 l-46 -27 -255 147
c-140 80 -256 150 -259 154 -2 4 106 72 241 151 l245 143 40 -22 c22 -12 139
-80 260 -150z m-881 -860 c329 -190 601 -343 604 -341 4 1 266 153 582 337
316 184 584 334 595 334 11 0 118 -57 237 -125 161 -93 214 -128 205 -136 -13
-12 -1601 -935 -1613 -937 -16 -3 -1652 949 -1644 956 5 6 429 256 436 257 0
0 269 -155 598 -345z"/>
<path d="M3830 3551 c-120 -39 -180 -111 -180 -217 0 -110 58 -183 200 -252
41 -20 92 -47 113 -61 72 -46 87 -118 38 -173 -28 -32 -32 -33 -108 -33 -69 0
-85 4 -133 31 -30 17 -59 41 -65 52 -5 12 -12 22 -15 22 -3 0 -21 -29 -40 -64
-33 -62 -34 -65 -17 -84 29 -32 127 -79 191 -92 108 -22 235 7 299 68 63 59
91 164 67 250 -17 64 -77 117 -209 187 -144 76 -171 100 -171 152 0 61 35 88
113 88 50 0 72 -6 110 -28 42 -25 52 -37 48 -59 0 -5 5 -8 12 -8 6 1 29 26 50
57 l38 56 -28 29 c-48 50 -125 81 -212 84 -42 2 -87 0 -101 -5z"/>
<path d="M7166 3350 c-15 -5 -36 -16 -46 -25 -16 -14 -18 -14 -23 0 -5 11 -22
15 -72 15 l-65 0 0 -320 0 -320 69 0 69 0 4 243 c3 255 9 287 49 287 12 0 23
-10 29 -26 6 -14 10 -133 10 -265 l0 -239 75 0 75 0 0 243 c0 203 3 246 16
265 20 29 42 28 54 -4 6 -14 10 -133 10 -265 l0 -239 76 0 76 0 -4 273 c-4
287 -9 319 -54 358 -44 38 -131 29 -174 -16 l-24 -25 -25 24 c-24 23 -72 47
-89 45 -4 0 -20 -5 -36 -9z"/>
<path d="M4622 3309 c-95 -47 -145 -123 -163 -244 -17 -118 24 -252 96 -312
95 -81 237 -99 349 -44 34 16 73 42 86 56 l24 25 -44 45 -43 44 -36 -29 c-117
-91 -241 -50 -276 93 l-7 27 206 0 206 0 0 73 c0 102 -22 161 -84 222 -58 58
-103 75 -193 75 -47 0 -73 -7 -121 -31z m186 -105 c24 -17 45 -54 56 -96 l6
-28 -125 0 c-119 0 -125 1 -125 20 0 30 26 75 56 99 32 25 99 28 132 5z"/>
<path d="M5602 3319 c-23 -12 -51 -33 -62 -46 l-20 -26 0 42 0 41 -80 0 -80 0
0 -315 0 -315 80 0 80 0 0 178 c0 97 5 194 10 214 21 73 104 127 175 114 37
-7 98 -52 90 -66 -3 -5 -2 -11 3 -14 4 -3 25 29 45 70 l38 75 -23 19 c-61 51
-183 65 -256 29z"/>
<path d="M8009 3327 c-131 -49 -199 -158 -199 -320 0 -97 16 -153 65 -219 95
-129 323 -149 447 -38 l43 38 -45 46 -44 46 -26 -25 c-26 -25 -98 -55 -133
-55 -64 0 -133 65 -151 143 l-6 27 204 0 204 0 6 31 c8 43 -10 153 -34 199
-23 46 -71 95 -114 117 -41 22 -170 28 -217 10z m156 -129 c15 -12 34 -36 41
-54 27 -64 27 -64 -111 -64 -138 0 -138 0 -111 64 20 48 61 76 111 76 28 0 51
-7 70 -22z"/>
<path d="M6120 3319 c0 -10 164 -449 217 -580 l16 -40 65 3 66 3 73 185 c93
235 143 379 143 413 0 27 -1 27 -70 27 l-70 0 0 -28 c0 -46 -36 -169 -88 -302
l-49 -124 -18 54 c-10 30 -45 133 -78 228 l-59 172 -74 0 c-48 0 -74 -4 -74
-11z"/>
</g>
</svg>
